<svg xmlns="http://www.w3.org/2000/svg" xmlns:xlink="http://www.w3.org/1999/xlink" width="127.725" height="127.723" viewBox="0 0 127.725 127.723"><defs><linearGradient id="linear-gradient" x1="0.135" y1="0.119" x2="0.873" y2="0.89" gradientUnits="objectBoundingBox"><stop offset="0" stop-color="#eebe47"></stop><stop offset="0.12" stop-color="#f8db76"></stop><stop offset="0.21" stop-color="#ffee96"></stop><stop offset="0.446" stop-color="#a2621e"></stop><stop offset="0.667" stop-color="#eea54c"></stop><stop offset="1" stop-color="#eebe47"></stop></linearGradient><linearGradient id="linear-gradient-2" x1="-10.093" y1="18.048" x2="-9.356" y2="18.82" xlink:href="#linear-gradient"></linearGradient><radialGradient id="radial-gradient" cx="0.165" cy="0.094" r="0.91" gradientTransform="translate(0)" gradientUnits="objectBoundingBox"><stop offset="0" stop-color="#304053"></stop><stop offset="0.226" stop-color="#2c3c4f"></stop><stop offset="0.516" stop-color="#0d1d30"></stop><stop offset="1" stop-color="#060d29"></stop></radialGradient><linearGradient id="linear-gradient-3" x1="0.112" y1="0.112" x2="1.076" y2="1.076" xlink:href="#linear-gradient"></linearGradient><radialGradient id="radial-gradient-2" cx="0.5" cy="0.5" r="0.507" gradientTransform="matrix(1, 0.029, -0.029, 1, 0.015, -0.014)" gradientUnits="objectBoundingBox"><stop offset="0.887" stop-color="#b0b0b0"></stop><stop offset="0.901" stop-color="#c3c3c3"></stop><stop offset="0.924" stop-color="#ddd"></stop><stop offset="0.948" stop-color="#f0f0f0"></stop><stop offset="0.973" stop-color="#fbfbfb"></stop><stop offset="1" stop-color="#fff"></stop></radialGradient><radialGradient id="radial-gradient-3" cx="0.174" cy="0.144" r="1.167" xlink:href="#radial-gradient"></radialGradient><radialGradient id="radial-gradient-4" cx="0.803" cy="0.601" r="1.442" gradientTransform="translate(0.01) scale(0.98 1)" gradientUnits="objectBoundingBox"><stop offset="0" stop-color="#ffc94c"></stop><stop offset="0.14" stop-color="#a2621e"></stop><stop offset="0.163" stop-color="#955a1b"></stop><stop offset="0.25" stop-color="#6e4214"></stop><stop offset="0.343" stop-color="#4c2e0e"></stop><stop offset="0.441" stop-color="#301d08"></stop><stop offset="0.546" stop-color="#1a1004"></stop><stop offset="0.663" stop-color="#0b0702"></stop><stop offset="0.798" stop-color="#020100"></stop><stop offset="1"></stop></radialGradient><linearGradient id="linear-gradient-5" x1="-229.006" y1="283.672" x2="-220.809" y2="291.101" xlink:href="#linear-gradient"></linearGradient><linearGradient id="linear-gradient-6" x1="-347.502" y1="427.466" x2="-335.171" y2="438.646" xlink:href="#linear-gradient"></linearGradient><linearGradient id="linear-gradient-7" x1="-341.865" y1="425.392" x2="-329.531" y2="436.573" xlink:href="#linear-gradient"></linearGradient><linearGradient id="linear-gradient-8" x1="-534.109" y1="667.554" x2="-514.709" y2="685.15" xlink:href="#linear-gradient"></linearGradient><linearGradient id="linear-gradient-9" x1="-550.806" y1="673.618" x2="-531.404" y2="691.211" xlink:href="#linear-gradient"></linearGradient><linearGradient id="linear-gradient-10" x1="-0.074" y1="-0.355" x2="2.052" y2="2.275" xlink:href="#linear-gradient"></linearGradient><linearGradient id="linear-gradient-11" x1="-1.36" y1="-0.667" x2="4.033" y2="2.735" xlink:href="#linear-gradient"></linearGradient><linearGradient id="linear-gradient-12" x1="-2.898" y1="-2.668" x2="4.775" y2="4.575" xlink:href="#linear-gradient"></linearGradient><linearGradient id="linear-gradient-13" x1="-1.346" y1="-0.234" x2="6.646" y2="3.211" xlink:href="#linear-gradient"></linearGradient><linearGradient id="linear-gradient-14" x1="-1.882" y1="-0.519" x2="5.577" y2="2.926" xlink:href="#linear-gradient"></linearGradient><linearGradient id="linear-gradient-15" x1="-3.444" y1="-0.836" x2="6.726" y2="2.609" xlink:href="#linear-gradient"></linearGradient><linearGradient id="linear-gradient-16" x1="-2.31" y1="-1.144" x2="3.578" y2="2.301" xlink:href="#linear-gradient"></linearGradient><linearGradient id="linear-gradient-17" x1="-15.098" y1="-1.421" x2="12.871" y2="2.024" xlink:href="#linear-gradient"></linearGradient><linearGradient id="linear-gradient-18" x1="-3.847" y1="-1.69" x2="3.146" y2="1.72" xlink:href="#linear-gradient"></linearGradient><linearGradient id="linear-gradient-19" x1="-3.851" y1="-2.046" x2="2.038" y2="1.4" xlink:href="#linear-gradient"></linearGradient><linearGradient id="linear-gradient-20" x1="-8.663" y1="-3.19" x2="8.039" y2="3.535" xlink:href="#linear-gradient"></linearGradient><linearGradient id="linear-gradient-21" x1="-9.672" y1="-3.743" x2="6.834" y2="3.142" xlink:href="#linear-gradient"></linearGradient><linearGradient id="linear-gradient-22" x1="-10.931" y1="-4.099" x2="5.767" y2="2.619" xlink:href="#linear-gradient"></linearGradient><linearGradient id="linear-gradient-23" x1="-38.735" y1="-4.601" x2="14.216" y2="2.283" xlink:href="#linear-gradient"></linearGradient><linearGradient id="linear-gradient-24" x1="-12.821" y1="-4.863" x2="3.885" y2="1.863" xlink:href="#linear-gradient"></linearGradient><linearGradient id="linear-gradient-25" x1="-15.548" y1="-5.437" x2="3.047" y2="1.442" xlink:href="#linear-gradient"></linearGradient><radialGradient id="radial-gradient-5" cx="3.629" cy="19.564" r="10.909" gradientTransform="translate(-432.5 548.442) rotate(180) scale(0.951 1)" xlink:href="#radial-gradient"></radialGradient><radialGradient id="radial-gradient-6" cx="3.245" cy="29.053" r="16.414" gradientTransform="translate(-655.206 824.17) rotate(180) scale(0.952 1)" xlink:href="#radial-gradient"></radialGradient><radialGradient id="radial-gradient-7" cx="7.232" cy="29.053" r="16.414" gradientTransform="translate(-647.442 824.17) rotate(180) scale(0.952 1)" xlink:href="#radial-gradient"></radialGradient><radialGradient id="radial-gradient-8" cx="13.731" cy="45.427" r="25.828" gradientTransform="translate(-1013.241 1296.705) rotate(180) scale(0.951 1)" xlink:href="#radial-gradient"></radialGradient><radialGradient id="radial-gradient-9" cx="2.08" cy="45.427" r="25.827" gradientTransform="translate(-1036.359 1296.705) rotate(180) scale(0.951 1)" xlink:href="#radial-gradient"></radialGradient><radialGradient id="radial-gradient-10" cx="-0.417" cy="0.008" r="3.861" gradientTransform="translate(0.151) scale(0.697 1)" xlink:href="#radial-gradient"></radialGradient><radialGradient id="radial-gradient-11" cx="-2.116" cy="-0.294" r="4.995" gradientTransform="translate(-0.184) scale(1.367 1)" xlink:href="#radial-gradient"></radialGradient><radialGradient id="radial-gradient-12" cx="-4.112" cy="-1.694" r="10.633" gradientTransform="translate(0.043) scale(0.914 1)" xlink:href="#radial-gradient"></radialGradient><radialGradient id="radial-gradient-13" cx="0.413" cy="-1.525" r="5.059" gradientTransform="translate(-0.5) scale(2 1)" xlink:href="#radial-gradient"></radialGradient><radialGradient id="radial-gradient-14" cx="-0.699" cy="-1.525" r="5.059" gradientTransform="translate(-0.433) scale(1.867 1)" xlink:href="#radial-gradient"></radialGradient><radialGradient id="radial-gradient-15" cx="-2.527" cy="-1.525" r="5.059" gradientTransform="translate(-0.773) scale(2.546 1)" xlink:href="#radial-gradient"></radialGradient><radialGradient id="radial-gradient-16" cx="-2.171" cy="-1.525" r="5.059" gradientTransform="translate(-0.237) scale(1.474 1)" xlink:href="#radial-gradient"></radialGradient><radialGradient id="radial-gradient-17" cx="-16.108" cy="-1.525" r="5.059" gradientTransform="translate(-3) scale(7 1)" xlink:href="#radial-gradient"></radialGradient><radialGradient id="radial-gradient-18" cx="-4.531" cy="-1.509" r="5.006" gradientTransform="translate(-0.384) scale(1.768 1)" xlink:href="#radial-gradient"></radialGradient><radialGradient id="radial-gradient-19" cx="-4.857" cy="-1.525" r="5.059" gradientTransform="translate(-0.237) scale(1.474 1)" xlink:href="#radial-gradient"></radialGradient><radialGradient id="radial-gradient-20" cx="-2.766" cy="-6.91" r="9.873" gradientTransform="translate(-0.571) scale(2.142 1)" xlink:href="#radial-gradient"></radialGradient><radialGradient id="radial-gradient-21" cx="-4.674" cy="-7.086" r="10.109" gradientTransform="translate(-0.534) scale(2.067 1)" xlink:href="#radial-gradient"></radialGradient><radialGradient id="radial-gradient-22" cx="-6.724" cy="-6.902" r="9.863" gradientTransform="translate(-0.572) scale(2.144 1)" xlink:href="#radial-gradient"></radialGradient><radialGradient id="radial-gradient-23" cx="-27.604" cy="-7.086" r="10.108" gradientTransform="translate(-2.816) scale(6.632 1)" xlink:href="#radial-gradient"></radialGradient><radialGradient id="radial-gradient-24" cx="-10.007" cy="-6.91" r="9.873" gradientTransform="translate(-0.571) scale(2.141 1)" xlink:href="#radial-gradient"></radialGradient><radialGradient id="radial-gradient-25" cx="-13.333" cy="-7.08" r="10.1" gradientTransform="translate(-0.666) scale(2.331 1)" xlink:href="#radial-gradient"></radialGradient></defs><g id="Group_19" data-name="Group 19" transform="translate(-62.478 -51.599)"><g id="Group_18" data-name="Group 18"><g id="Group_17" data-name="Group 17"><g id="Group_16" data-name="Group 16"><g id="Group_15" data-name="Group 15"><g id="Group_14" data-name="Group 14"><g id="Group_13" data-name="Group 13" transform="translate(-17 -18)"><g id="Group_12" data-name="Group 12"><path id="Path_1" data-name="Path 1" d="M79.478,133.461a63.863,63.863,0,1,1,63.862,63.861A63.861,63.861,0,0,1,79.478,133.461Z" fill="url(#linear-gradient)"></path><path id="Path_2" data-name="Path 2" d="M205.679,133.459a62.338,62.338,0,1,1-62.338-62.337A62.339,62.339,0,0,1,205.679,133.459Z" fill="url(#linear-gradient-2)"></path><path id="Path_3" data-name="Path 3" d="M204.237,133.461a60.9,60.9,0,1,1-60.9-60.9A60.894,60.894,0,0,1,204.237,133.461Z" fill="url(#radial-gradient)"></path><path id="Path_4" data-name="Path 4" d="M201.94,133.46a58.6,58.6,0,1,1-58.6-58.6A58.6,58.6,0,0,1,201.94,133.46Z" fill="url(#linear-gradient-3)"></path><circle id="Ellipse_1" data-name="Ellipse 1" cx="57.605" cy="57.605" r="57.605" transform="translate(84.081 77.558) rotate(-1.671)" fill="url(#radial-gradient-2)" style="mix-blend-mode: color-burn;isolation: isolate"></circle><path id="Path_5" data-name="Path 5" d="M195.308,133.46a51.966,51.966,0,1,1-51.967-51.966A51.965,51.965,0,0,1,195.308,133.46Z" fill="url(#linear-gradient-3)"></path><g id="Group_1" data-name="Group 1"><path id="Path_6" data-name="Path 6" d="M144,189.4a.641.641,0,0,1,.627-.655h0a.645.645,0,0,1,.667.626h0a.655.655,0,0,1-.637.666h-.01A.653.653,0,0,1,144,189.4Zm-7.283.268a.651.651,0,0,1-.567-.726h0a.642.642,0,0,1,.717-.557h0a.649.649,0,0,1,.567.715h0a.646.646,0,0,1-.647.568h-.07Zm15.123-.9a.637.637,0,0,1,.528-.736h0a.639.639,0,0,1,.746.527h0a.643.643,0,0,1-.537.746h0c-.031,0-.07.01-.1.01h0A.65.65,0,0,1,151.844,188.766Zm-22.942-.577a.643.643,0,0,1-.468-.787h0a.647.647,0,0,1,.8-.457h0a.632.632,0,0,1,.458.787h0a.65.65,0,0,1-.627.488h0A.428.428,0,0,1,128.9,188.189Zm30.613-1.154a.639.639,0,0,1,.418-.805h0a.647.647,0,0,1,.816.417h0a.645.645,0,0,1-.428.816h0a.594.594,0,0,1-.19.03h0A.646.646,0,0,1,159.515,187.035Zm-38.155-1.4a.657.657,0,0,1-.338-.855h0a.642.642,0,0,1,.845-.338h0a.645.645,0,0,1,.349.844h0a.655.655,0,0,1-.6.4h0A.793.793,0,0,1,121.36,185.632Zm45.508-1.392a.648.648,0,0,1,.3-.867h0a.662.662,0,0,1,.866.309h0a.655.655,0,0,1-.309.866h0a.7.7,0,0,1-.279.059h0A.643.643,0,0,1,166.868,184.24Zm-52.6-2.219a.637.637,0,0,1-.218-.886h0a.635.635,0,0,1,.885-.218h0a.635.635,0,0,1,.219.884h0a.648.648,0,0,1-.557.31h0A.665.665,0,0,1,114.266,182.021Zm59.476-1.583a.642.642,0,0,1,.179-.894h0a.655.655,0,0,1,.906.178h0a.658.658,0,0,1-.189.9h0a.666.666,0,0,1-.358.109h0A.668.668,0,0,1,173.742,180.438Zm-65.992-2.974a.66.66,0,0,1-.1-.915h0a.649.649,0,0,1,.915-.09h0a.637.637,0,0,1,.091.906h0a.634.634,0,0,1-.5.238h0A.671.671,0,0,1,107.75,177.464Zm72.28-1.76a.645.645,0,0,1,.05-.915v.008a.648.648,0,0,1,.915.051h0a.655.655,0,0,1-.059.914h0a.63.63,0,0,1-.428.159h0A.607.607,0,0,1,180.03,175.7Zm-78.1-3.672a.654.654,0,0,1,.03-.915h0a.643.643,0,0,1,.914.04h0a.643.643,0,0,1-.029.914h0a.7.7,0,0,1-.438.171h0A.638.638,0,0,1,101.93,172.032Zm83.662-1.89a.639.639,0,0,1-.08-.907h0a.65.65,0,0,1,.915-.079h0a.648.648,0,0,1,.071.916h0a.649.649,0,0,1-.489.229h0A.67.67,0,0,1,185.592,170.142Zm-88.666-4.287a.661.661,0,0,1,.158-.906h0a.661.661,0,0,1,.906.158h0a.662.662,0,0,1-.159.906h0a.674.674,0,0,1-.369.11h0A.654.654,0,0,1,96.926,165.855Zm93.392-2a.643.643,0,0,1-.2-.886h0a.651.651,0,0,1,.9-.2h0a.641.641,0,0,1,.2.884h0a.661.661,0,0,1-.548.31h0A.647.647,0,0,1,190.318,163.853Zm-97.482-4.825h0a.642.642,0,0,1,.288-.863h0a.631.631,0,0,1,.866.277h0a.655.655,0,0,1-.278.874h0a.776.776,0,0,1-.289.07h0A.659.659,0,0,1,92.836,159.028Zm101.291-2.059a.65.65,0,0,1-.328-.855h0a.648.648,0,0,1,.856-.32h0a.653.653,0,0,1,.328.856h0a.648.648,0,0,1-.587.378h0A.681.681,0,0,1,194.127,156.969ZM89.752,151.7h0a.642.642,0,0,1,.4-.818h0a.65.65,0,0,1,.826.4h0a.654.654,0,0,1-.409.827h0a.779.779,0,0,1-.208.029h0A.641.641,0,0,1,89.752,151.7Zm107.171-2.079a.66.66,0,0,1-.447-.807h0a.656.656,0,0,1,.805-.438h0a.653.653,0,0,1,.439.806h0a.649.649,0,0,1-.617.467h0A.625.625,0,0,1,196.923,149.618ZM87.732,144.005h0a.638.638,0,0,1,.508-.755h0a.633.633,0,0,1,.756.517h0a.643.643,0,0,1-.517.755h0c-.04,0-.08.011-.11.011h0A.642.642,0,0,1,87.732,144.005Zm110.923-2.059a.651.651,0,0,1-.557-.736h0a.651.651,0,0,1,.735-.547h0a.646.646,0,0,1,.548.726h0a.642.642,0,0,1-.636.557h-.09ZM86.807,136.1a.645.645,0,0,1,.616-.668h0a.648.648,0,0,1,.677.617h0a.649.649,0,0,1-.616.677h-.03A.661.661,0,0,1,86.807,136.1Zm111.838-2.636a.647.647,0,0,1,.647-.649h0a.646.646,0,0,1,.646.649h0a.646.646,0,0,1-.646.647h0A.646.646,0,0,1,198.645,133.46Zm-.239-5.166h0a.643.643,0,0,1,.577-.707h0a.654.654,0,0,1,.707.59h0a.651.651,0,0,1-.577.7h-.06A.64.64,0,0,1,198.406,128.294Zm-110.833.558a.64.64,0,0,1-.576-.705h0v.009h0a.637.637,0,0,1,.705-.586h0a.645.645,0,0,1,.578.695h0a.639.639,0,0,1-.637.587h-.07Zm109.57-8.227h0a.647.647,0,0,1,.477-.775h0a.647.647,0,0,1,.786.476h0a.65.65,0,0,1-.478.777h0a1.1,1.1,0,0,1-.159.02h0A.646.646,0,0,1,197.143,120.625Zm-108.376.448a.635.635,0,0,1-.477-.777h0a.641.641,0,0,1,.775-.477h0a.644.644,0,0,1,.479.776h0a.647.647,0,0,1-.627.5h0A.408.408,0,0,1,88.767,121.073Zm106.048-7.861a.648.648,0,0,1,.368-.845h0a.648.648,0,0,1,.835.369h0a.643.643,0,0,1-.358.835h0a.677.677,0,0,1-.238.05h0A.657.657,0,0,1,194.815,113.212Zm-103.779.329a.645.645,0,0,1-.359-.835h0a.644.644,0,0,1,.836-.37h0a.659.659,0,0,1,.367.847h0a.656.656,0,0,1-.606.408h0A.672.672,0,0,1,91.036,113.541ZM191.471,106.2h0a.637.637,0,0,1,.24-.875h0a.651.651,0,0,1,.885.241h0a.649.649,0,0,1-.249.875h0a.622.622,0,0,1-.318.089h0A.636.636,0,0,1,191.471,106.2Zm-97.113.211a.653.653,0,0,1-.249-.885h0a.653.653,0,0,1,.887-.24h0a.648.648,0,0,1,.237.886h0a.634.634,0,0,1-.557.317h0A.6.6,0,0,1,94.358,106.408Zm92.806-6.676a.66.66,0,0,1,.119-.916h0a.65.65,0,0,1,.9.118h0a.638.638,0,0,1-.12.907h0a.6.6,0,0,1-.387.14h0A.665.665,0,0,1,187.164,99.732Zm-88.528.078a.658.658,0,0,1-.119-.9h.01a.638.638,0,0,1,.906-.12h0a.647.647,0,0,1,.109.9h0a.66.66,0,0,1-.508.25h0A.644.644,0,0,1,98.636,99.81ZM182,93.92h0a.655.655,0,0,1-.01-.915h0A.651.651,0,0,1,182.9,93h0a.646.646,0,0,1,.01.916h0a.655.655,0,0,1-.467.19h0A.654.654,0,0,1,182,93.92Zm-78.2-.048a.645.645,0,0,1,.01-.915h0a.656.656,0,0,1,.915.008h0a.645.645,0,0,1-.009.915h0a.629.629,0,0,1-.448.191h0A.667.667,0,0,1,103.8,93.872Zm72.28-4.985a.643.643,0,0,1-.139-.906h0a.651.651,0,0,1,.906-.138h0a.65.65,0,0,1,.13.9h0a.637.637,0,0,1-.519.26h0A.651.651,0,0,1,176.08,88.887Zm-66.34-.168a.649.649,0,0,1,.139-.906h0a.651.651,0,0,1,.9.139h0a.649.649,0,0,1-.138.9h0a.7.7,0,0,1-.389.129h0A.655.655,0,0,1,109.74,88.719ZM169.5,84.726h0a.644.644,0,0,1-.269-.873h0a.653.653,0,0,1,.885-.268h0v.009h0a.638.638,0,0,1,.259.866h0a.651.651,0,0,1-.566.348h0A.652.652,0,0,1,169.5,84.726Zm-53.168-.286a.646.646,0,0,1,.269-.876h0a.646.646,0,0,1,.875.27h0a.648.648,0,0,1-.268.875h0a.7.7,0,0,1-.3.08h0A.665.665,0,0,1,116.336,84.44Zm46.074-2.906a.644.644,0,0,1-.388-.824h0a.657.657,0,0,1,.836-.39h0a.648.648,0,0,1,.388.827h0a.647.647,0,0,1-.607.427h0A.6.6,0,0,1,162.41,81.534Zm-38.941-.4a.648.648,0,0,1,.388-.827h0a.638.638,0,0,1,.827.388h0a.647.647,0,0,1-.389.826h0a.545.545,0,0,1-.218.04h0A.65.65,0,0,1,123.469,81.138Zm31.469-1.761a.64.64,0,0,1-.5-.766h0a.638.638,0,0,1,.766-.5h0a.639.639,0,0,1,.5.763h0a.63.63,0,0,1-.627.509h0A.732.732,0,0,1,154.938,79.377ZM131,78.877a.648.648,0,0,1,.5-.774h0a.647.647,0,0,1,.765.5h0a.659.659,0,0,1-.5.777h0c-.04,0-.089.009-.129.009h0A.642.642,0,0,1,131,78.877Zm16.237-.585a.633.633,0,0,1-.6-.688h0a.644.644,0,0,1,.686-.6h0a.648.648,0,0,1,.608.688h0a.659.659,0,0,1-.647.6h-.05Zm-8.467-.6a.662.662,0,0,1,.607-.7h0a.646.646,0,0,1,.686.606h0a.632.632,0,0,1-.6.688h-.049A.651.651,0,0,1,138.771,77.695Z" fill="url(#radial-gradient-3)"></path></g><path id="Path_7" data-name="Path 7" d="M106.325,178.882a141.989,141.989,0,0,1,84.536-79.694,58.593,58.593,0,1,0-84.536,79.694Z" fill="url(#radial-gradient-4)" style="mix-blend-mode: screen;isolation: isolate"></path><g id="Group_6" data-name="Group 6" opacity="0.6" style="mix-blend-mode: screen;isolation: isolate"><g id="Group_2" data-name="Group 2"><path id="Path_8" data-name="Path 8" d="M145.288,158.611l-2.857-1.691-2.855,1.7.725-3.242-2.492-2.19,3.3-.311,1.314-3.051,1.317,3.051,3.306.307-2.491,2.194Z" fill="url(#linear-gradient-5)"></path><path id="Path_9" data-name="Path 9" d="M156.39,157.914l-1.9-1.126-1.9,1.126.483-2.151-1.658-1.46,2.2-.205.875-2.027.876,2.027,2.2.2-1.656,1.462Z" fill="url(#linear-gradient-6)"></path><path id="Path_10" data-name="Path 10" d="M131.895,157.914l-1.9-1.126-1.9,1.126.483-2.151-1.657-1.46,2.2-.205.875-2.027.876,2.027,2.2.2-1.656,1.462Z" fill="url(#linear-gradient-7)"></path><path id="Path_11" data-name="Path 11" d="M120.882,156.849l-1.208-.716-1.207.716.308-1.369-1.055-.927,1.4-.129.556-1.29.556,1.288,1.4.13-1.052.927Z" fill="url(#linear-gradient-8)"></path><path id="Path_12" data-name="Path 12" d="M166.393,156.849l-1.208-.716-1.206.716.306-1.369-1.053-.927,1.4-.129.556-1.29.556,1.288,1.4.13-1.053.927Z" fill="url(#linear-gradient-9)"></path></g><g id="Group_3" data-name="Group 3"><path id="Path_13" data-name="Path 13" d="M145.369,95.577q10.935,0,11.414-.069a5.762,5.762,0,0,1,.8-.069c.216,0,.324.047.324.138s-.12.233-.359.426a4.069,4.069,0,0,1-1.229.582,6.222,6.222,0,0,1-1.966.29l-10.081-.036a33.052,33.052,0,0,0-8.423,1.2,26.188,26.188,0,0,0-6.578,2.7,18.932,18.932,0,0,0-4.067,3.213,4.6,4.6,0,0,0-1.5,2.8q0,1.4,2.084,1.4a12.3,12.3,0,0,0,5.417-1.793,21.638,21.638,0,0,0,5.655-4.289c.25-.25.422-.376.513-.376.045,0,.067.035.067.1a.4.4,0,0,1-.033.173q-.991,2.323-4.682,4.9a12.451,12.451,0,0,1-7.074,2.58q-3.382,0-3.382-1.949,0-1.468,1.913-3.485a25.077,25.077,0,0,1,4.955-3.912,32.81,32.81,0,0,1,16.232-4.528Zm-1.537,2.494q0,.1-2.392,4.545-6.529,12.131-8.955,16.743a1.392,1.392,0,0,1-.751.685,2.35,2.35,0,0,1-.837.239c-.194,0-.29-.051-.29-.154s.967-1.932,2.9-5.484,3.867-7.092,5.792-10.61,2.865-5.292,2.82-5.315a1.238,1.238,0,0,1,.683-.511l.855-.276Z" fill="url(#linear-gradient-10)"></path><path id="Path_14" data-name="Path 14" d="M138.91,118.642a20.229,20.229,0,0,0,3.435-2.716q3.126-2.715,3.673-2.717c.364,0,.547.16.547.477a2.27,2.27,0,0,1-.684,1.163q-.684.788-1.348,1.707a2.935,2.935,0,0,0-.667,1.641q0,.378.563.378a5.931,5.931,0,0,0,2-.667,23.079,23.079,0,0,0,2.528-1.352l1.093-.681a.68.68,0,0,1,.034.273q0,.2-.307.341-4.612,3.144-6.423,3.144-.89,0-.89-.956a3.58,3.58,0,0,1,.478-1.572,10.109,10.109,0,0,1,.957-1.537l.445-.615q-1.539,1.159-3.178,2.613c-1.094.969-1.925,1.695-2.495,2.186s-.967.735-1.2.735-.342-.165-.342-.5a14.836,14.836,0,0,1,1.606-3.436q1.606-2.938,3.708-6.338a54.076,54.076,0,0,1,4.409-6.168q2.307-2.766,3.5-2.767a.725.725,0,0,1,.718.478.792.792,0,0,1,.1.41q0,2.36-7.074,9.056-1.333,1.3-2.6,2.392Q138.91,117.995,138.91,118.642Zm11.14-16.1c0-.226-.056-.34-.171-.34q-.683,0-2.87,3.006t-4.647,7.006Q150.049,105.215,150.05,102.546Z" fill="url(#linear-gradient-11)"></path><path id="Path_15" data-name="Path 15" d="M151.007,115.773q-2.051,0-2.05-.89,0-1.059,2.426-2.51a8.72,8.72,0,0,1,4.374-1.454q.991,0,.991.616,0,.342-.512.752a5.747,5.747,0,0,1-.991.649,2.749,2.749,0,0,1-.547.239.267.267,0,0,1-.274-.171c-.045-.16.074-.325.359-.495s.427-.359.427-.564-.256-.307-.768-.307a5.318,5.318,0,0,0-2.409,1.076q-1.641,1.077-1.641,1.758c0,.343.4.516,1.2.516.137,0,.387-.013.752-.035s.547.022.547.134-.565.526-1.692,1.232-1.692,1.31-1.692,1.81c0,.572.371.855,1.111.855a6.637,6.637,0,0,0,2.511-.58,34.01,34.01,0,0,0,4.1-2.12l.65-.409a.719.719,0,0,1,.034.273c0,.136-.1.25-.307.341a38.446,38.446,0,0,1-3.964,2.341,8.631,8.631,0,0,1-3.879,1.111q-1.725,0-1.725-1.145T151.007,115.773Z" fill="url(#linear-gradient-12)"></path></g><g id="Group_4" data-name="Group 4"><path id="Path_16" data-name="Path 16" d="M103.5,143.516V124.552h4.741q4.74,0,4.74,5.417a4.259,4.259,0,0,1-4.74,4.742h-2.032v8.805Zm2.709-10.837h.677a8.98,8.98,0,0,0,1.509-.1,2.783,2.783,0,0,0,1.037-.4,1.593,1.593,0,0,0,.644-.829,4.051,4.051,0,0,0,.2-1.377,7.408,7.408,0,0,0-.148-1.644,2.01,2.01,0,0,0-1.571-1.587,7.254,7.254,0,0,0-1.667-.153h-.677Z" fill="url(#linear-gradient-13)"></path><path id="Path_17" data-name="Path 17" d="M114.519,143.516V124.552h3.387a7.439,7.439,0,0,1,4.56,1.174A4.619,4.619,0,0,1,124,129.632a6.024,6.024,0,0,1-.6,2.836,3.181,3.181,0,0,1-1.768,1.567l3.048,9.481H121.99l-2.73-8.805h-2.031v8.805Zm2.71-10.837h.677a3.863,3.863,0,0,0,2.539-.714,3.641,3.641,0,0,0,0-4.667,3.868,3.868,0,0,0-2.539-.713h-.677Z" fill="url(#linear-gradient-14)"></path><path id="Path_18" data-name="Path 18" d="M126.243,143.516V124.552h7.45v2.033h-4.741v6.094h3.386v2.032h-3.386v6.773h4.741v2.032Z" fill="url(#linear-gradient-15)"></path><path id="Path_19" data-name="Path 19" d="M135.355,143.516V124.552H139.1l2.687,14.52,2.688-14.52h3.746v18.964h-2.709V128.553L142.8,143.516h-2.032l-2.708-14.963v14.963Z" fill="url(#linear-gradient-16)"></path><path id="Path_20" data-name="Path 20" d="M151.058,143.516V124.552h2.709v18.964Z" fill="url(#linear-gradient-17)"></path><path id="Path_21" data-name="Path 21" d="M164.116,143.389a7.474,7.474,0,0,1-4.36,0,4.148,4.148,0,0,1-1.55-.917,4.445,4.445,0,0,1-.99-1.474,7.92,7.92,0,0,1-.539-1.921,15.449,15.449,0,0,1-.158-2.333V124.552h2.709v12.192c0,.584.011,1.074.036,1.468a7.543,7.543,0,0,0,.2,1.266,3.134,3.134,0,0,0,.439,1.075,2.135,2.135,0,0,0,.793.665,3.04,3.04,0,0,0,2.487,0,2.139,2.139,0,0,0,.794-.665,3.134,3.134,0,0,0,.439-1.075,7.545,7.545,0,0,0,.2-1.266q.036-.591.036-1.468V124.552h2.71v12.192a15.443,15.443,0,0,1-.159,2.333,7.92,7.92,0,0,1-.539,1.921,4.445,4.445,0,0,1-.99,1.474A4.156,4.156,0,0,1,164.116,143.389Z" fill="url(#linear-gradient-18)"></path><path id="Path_22" data-name="Path 22" d="M169.915,143.516V124.552h3.745l2.689,14.52,2.687-14.52h3.746v18.964h-2.709V128.553l-2.709,14.963h-2.032l-2.708-14.963v14.963Z" fill="url(#linear-gradient-19)"></path></g><g id="Group_5" data-name="Group 5"><path id="Path_23" data-name="Path 23" d="M122.242,172.5a2.264,2.264,0,0,1-2.272-2.263v-5.181a2.269,2.269,0,1,1,4.537,0v1.082h-1.484v-1.112a.828.828,0,0,0-.826-.825.782.782,0,0,0-.579.242.8.8,0,0,0-.239.583v5.195a.818.818,0,0,0,.818.819.8.8,0,0,0,.583-.24.782.782,0,0,0,.243-.579v-1.31h1.484v1.326a2.174,2.174,0,0,1-.666,1.606A2.2,2.2,0,0,1,122.242,172.5Z" fill="url(#linear-gradient-20)"></path><path id="Path_24" data-name="Path 24" d="M130.312,168.356v4.022H128.88v-9.492h1.432v4.032h1.727v-4.032h1.432v9.492h-1.432v-4.022Z" fill="url(#linear-gradient-21)"></path><path id="Path_25" data-name="Path 25" d="M140.2,162.767a2.269,2.269,0,0,1,2.273,2.272v5.18a2.271,2.271,0,0,1-3.878,1.607,2.208,2.208,0,0,1-.659-1.607v-5.18a2.269,2.269,0,0,1,2.264-2.272Zm.781,2.241a.823.823,0,0,0-1.4-.58.786.786,0,0,0-.242.58v5.2a.787.787,0,0,0,.242.579.8.8,0,0,0,.584.237.787.787,0,0,0,.579-.237.8.8,0,0,0,.239-.579Z" fill="url(#linear-gradient-22)"></path><path id="Path_26" data-name="Path 26" d="M148.367,172.378h-1.431v-9.492h1.431Z" fill="url(#linear-gradient-23)"></path><path id="Path_27" data-name="Path 27" d="M155.1,172.5a2.264,2.264,0,0,1-2.272-2.263v-5.181a2.271,2.271,0,0,1,3.878-1.606,2.2,2.2,0,0,1,.658,1.606v1.082h-1.484v-1.112a.823.823,0,0,0-1.406-.583.8.8,0,0,0-.238.583v5.195a.816.816,0,0,0,.819.819.8.8,0,0,0,.583-.24.777.777,0,0,0,.242-.579v-1.31h1.484v1.326A2.258,2.258,0,0,1,155.1,172.5Z" fill="url(#linear-gradient-24)"></path><path id="Path_28" data-name="Path 28" d="M161.742,172.378v-9.5h4.075v1.439h-2.644v2.591H165.1v1.439h-1.931v2.591h2.644v1.438Z" fill="url(#linear-gradient-25)"></path></g></g><g id="Group_11" data-name="Group 11"><g id="Group_7" data-name="Group 7"><path id="Path_29" data-name="Path 29" d="M144.9,158.154l-2.857-1.691-2.855,1.7.725-3.24-2.494-2.191,3.306-.311,1.314-3.051,1.317,3.051,3.307.3-2.492,2.2Z" fill="url(#radial-gradient-5)"></path><path id="Path_30" data-name="Path 30" d="M156,157.459l-1.9-1.127-1.9,1.127.482-2.154-1.657-1.457,2.2-.206.875-2.028.875,2.028,2.2.2-1.656,1.461Z" fill="url(#radial-gradient-6)"></path><path id="Path_31" data-name="Path 31" d="M131.5,157.459l-1.9-1.127-1.9,1.127.482-2.154-1.658-1.457,2.2-.206.876-2.028.876,2.028,2.2.2L131.02,155.3Z" fill="url(#radial-gradient-7)"></path><path id="Path_32" data-name="Path 32" d="M120.491,156.391l-1.207-.715-1.206.715.307-1.366-1.055-.928,1.4-.129.555-1.291.556,1.289,1.4.13-1.052.927Z" fill="url(#radial-gradient-8)"></path><path id="Path_33" data-name="Path 33" d="M166,156.391l-1.208-.715-1.206.715.306-1.366-1.053-.928,1.4-.129.556-1.291.556,1.289,1.4.13-1.052.927Z" fill="url(#radial-gradient-9)"></path></g><g id="Group_8" data-name="Group 8"><path id="Path_34" data-name="Path 34" d="M144.978,95.122q10.937,0,11.414-.069a5.8,5.8,0,0,1,.8-.07c.217,0,.325.047.325.139s-.12.233-.358.425a4.1,4.1,0,0,1-1.23.581,6.193,6.193,0,0,1-1.966.29l-10.081-.034a32.919,32.919,0,0,0-8.423,1.2,26.242,26.242,0,0,0-6.578,2.7,18.943,18.943,0,0,0-4.067,3.212,4.6,4.6,0,0,0-1.5,2.8q0,1.4,2.084,1.4a12.306,12.306,0,0,0,5.417-1.795,21.668,21.668,0,0,0,5.655-4.29c.251-.248.422-.374.513-.374.045,0,.068.034.068.1a.377.377,0,0,1-.035.171q-.99,2.325-4.681,4.9a12.453,12.453,0,0,1-7.073,2.58q-3.384,0-3.383-1.948,0-1.47,1.914-3.486a25.083,25.083,0,0,1,4.954-3.912,32.781,32.781,0,0,1,16.232-4.526Zm-1.538,2.494q0,.1-2.392,4.544-6.528,12.13-8.953,16.744a1.391,1.391,0,0,1-.752.683,2.336,2.336,0,0,1-.837.241c-.193,0-.29-.052-.29-.156s.968-1.929,2.9-5.483,3.867-7.092,5.792-10.611,2.864-5.291,2.82-5.315a1.253,1.253,0,0,1,.684-.512l.854-.274Z" fill="url(#radial-gradient-10)"></path><path id="Path_35" data-name="Path 35" d="M138.52,118.187a20.228,20.228,0,0,0,3.434-2.717q3.128-2.718,3.673-2.718t.547.479a2.27,2.27,0,0,1-.683,1.161q-.684.789-1.349,1.71a2.922,2.922,0,0,0-.667,1.641c0,.251.187.375.564.375a5.887,5.887,0,0,0,2-.667,23.613,23.613,0,0,0,2.528-1.349l1.094-.684a.728.728,0,0,1,.034.275c0,.135-.1.25-.308.34q-4.612,3.144-6.425,3.144-.888,0-.887-.957a3.564,3.564,0,0,1,.478-1.572,10,10,0,0,1,.957-1.537l.444-.614q-1.538,1.159-3.178,2.613T138.28,119.3q-.854.737-1.195.736c-.228,0-.342-.166-.342-.495a14.7,14.7,0,0,1,1.606-3.435q1.606-2.941,3.707-6.339a53.843,53.843,0,0,1,4.408-6.168q2.307-2.768,3.5-2.769a.729.729,0,0,1,.719.478.8.8,0,0,1,.1.41q0,2.36-7.074,9.057-1.334,1.3-2.6,2.393Q138.519,117.535,138.52,118.187Zm11.14-16.1c0-.228-.057-.341-.172-.341q-.683,0-2.869,3.006t-4.648,7.005Q149.66,104.759,149.66,102.091Z" fill="url(#radial-gradient-11)"></path><path id="Path_36" data-name="Path 36" d="M150.616,115.316q-2.051,0-2.05-.888,0-1.061,2.426-2.512a8.718,8.718,0,0,1,4.375-1.453c.659,0,.99.206.99.616,0,.226-.17.478-.512.751a5.667,5.667,0,0,1-.992.65,2.83,2.83,0,0,1-.546.238.267.267,0,0,1-.274-.169c-.045-.16.074-.326.359-.5s.427-.358.427-.561-.256-.309-.768-.309a5.334,5.334,0,0,0-2.409,1.076Q150,113.334,150,114.017q0,.513,1.2.512.2,0,.753-.032c.363-.025.546.021.546.134s-.564.526-1.692,1.232-1.692,1.31-1.692,1.809c0,.572.371.855,1.111.855a6.693,6.693,0,0,0,2.512-.578,34.51,34.51,0,0,0,4.1-2.121l.65-.41a.708.708,0,0,1,.034.275c0,.135-.1.25-.308.34a38.215,38.215,0,0,1-3.963,2.341,8.644,8.644,0,0,1-3.879,1.111q-1.725,0-1.725-1.145T150.616,115.316Z" fill="url(#radial-gradient-12)"></path></g><g id="Group_9" data-name="Group 9"><path id="Path_37" data-name="Path 37" d="M103.112,143.058V124.1h4.741q4.74,0,4.74,5.418a4.26,4.26,0,0,1-4.74,4.741h-2.032v8.8Zm2.709-10.835h.678a8.842,8.842,0,0,0,1.507-.105,2.816,2.816,0,0,0,1.037-.4,1.616,1.616,0,0,0,.646-.831,4.116,4.116,0,0,0,.195-1.377,7.336,7.336,0,0,0-.148-1.644,2.135,2.135,0,0,0-.545-1.033,2.107,2.107,0,0,0-1.026-.556,7.308,7.308,0,0,0-1.666-.153h-.678Z" fill="url(#radial-gradient-13)"></path><path id="Path_38" data-name="Path 38" d="M114.128,143.058V124.1h3.386a7.426,7.426,0,0,1,4.56,1.176,4.605,4.605,0,0,1,1.535,3.9,6.009,6.009,0,0,1-.6,2.834,3.169,3.169,0,0,1-1.767,1.567l3.048,9.48H121.6l-2.731-8.8h-2.031v8.8Zm2.709-10.835h.677a3.851,3.851,0,0,0,2.539-.715,3.637,3.637,0,0,0,0-4.666,3.857,3.857,0,0,0-2.539-.714h-.677Z" fill="url(#radial-gradient-14)"></path><path id="Path_39" data-name="Path 39" d="M125.853,143.058V124.1H133.3v2.032h-4.74v6.1h3.386v2.032h-3.386v6.773h4.74v2.03Z" fill="url(#radial-gradient-15)"></path><path id="Path_40" data-name="Path 40" d="M134.964,143.058V124.1h3.746l2.687,14.519,2.688-14.519h3.746v18.962h-2.709V128.1l-2.709,14.961h-2.032L137.673,128.1v14.961Z" fill="url(#radial-gradient-16)"></path><path id="Path_41" data-name="Path 41" d="M150.667,143.058V124.1h2.709v18.962Z" fill="url(#radial-gradient-17)"></path><path id="Path_42" data-name="Path 42" d="M163.725,142.931a7.408,7.408,0,0,1-4.36,0,4.119,4.119,0,0,1-1.55-.915,4.424,4.424,0,0,1-.99-1.475,7.96,7.96,0,0,1-.539-1.922,15.39,15.39,0,0,1-.159-2.33V124.1h2.709v12.193q0,.876.037,1.468a7.651,7.651,0,0,0,.195,1.264,3.163,3.163,0,0,0,.44,1.076,2.116,2.116,0,0,0,.794.666,3.048,3.048,0,0,0,2.486,0,2.131,2.131,0,0,0,.794-.666,3.143,3.143,0,0,0,.439-1.076,7.553,7.553,0,0,0,.2-1.264q.036-.591.037-1.468V124.1h2.709v12.193a15.39,15.39,0,0,1-.159,2.33,7.959,7.959,0,0,1-.539,1.922,4.424,4.424,0,0,1-.99,1.475A4.127,4.127,0,0,1,163.725,142.931Z" fill="url(#radial-gradient-18)"></path><path id="Path_43" data-name="Path 43" d="M169.524,143.058V124.1h3.746l2.687,14.519,2.688-14.519h3.746v18.962h-2.71V128.1l-2.708,14.961h-2.032L172.233,128.1v14.961Z" fill="url(#radial-gradient-19)"></path></g><g id="Group_10" data-name="Group 10"><path id="Path_44" data-name="Path 44" d="M121.851,172.044a2.264,2.264,0,0,1-2.271-2.266V164.6a2.271,2.271,0,0,1,3.878-1.607,2.2,2.2,0,0,1,.658,1.607v1.081h-1.485v-1.112a.826.826,0,0,0-.825-.827.779.779,0,0,0-.579.243.8.8,0,0,0-.24.584v5.2a.818.818,0,0,0,.819.818.8.8,0,0,0,.584-.239.782.782,0,0,0,.241-.579v-1.31h1.485v1.325a2.167,2.167,0,0,1-.666,1.6A2.191,2.191,0,0,1,121.851,172.044Z" fill="url(#radial-gradient-20)"></path><path id="Path_45" data-name="Path 45" d="M129.921,167.9v4.022h-1.432v-9.491h1.432v4.03h1.727v-4.03h1.432v9.491h-1.432V167.9Z" fill="url(#radial-gradient-21)"></path><path id="Path_46" data-name="Path 46" d="M139.808,162.31a2.269,2.269,0,0,1,2.273,2.272v5.181a2.269,2.269,0,1,1-4.537,0v-5.181a2.269,2.269,0,0,1,2.264-2.272Zm.78,2.242a.818.818,0,0,0-.817-.819.8.8,0,0,0-.583.241.774.774,0,0,0-.243.578v5.2a.778.778,0,0,0,.243.578.8.8,0,0,0,.583.238.813.813,0,0,0,.817-.816Z" fill="url(#radial-gradient-22)"></path><path id="Path_47" data-name="Path 47" d="M147.976,171.922h-1.431v-9.491h1.431Z" fill="url(#radial-gradient-23)"></path><path id="Path_48" data-name="Path 48" d="M154.713,172.044a2.265,2.265,0,0,1-2.273-2.266V164.6a2.272,2.272,0,0,1,3.879-1.607,2.206,2.206,0,0,1,.659,1.607v1.081h-1.485v-1.112a.828.828,0,0,0-.826-.827.781.781,0,0,0-.579.243.8.8,0,0,0-.239.584v5.2a.816.816,0,0,0,.818.818.8.8,0,0,0,.584-.239.775.775,0,0,0,.242-.579v-1.31h1.485v1.325a2.267,2.267,0,0,1-2.265,2.266Z" fill="url(#radial-gradient-24)"></path><path id="Path_49" data-name="Path 49" d="M161.351,171.922v-9.5h4.074v1.439h-2.643v2.591h1.932v1.438h-1.932v2.591h2.643v1.439Z" fill="url(#radial-gradient-25)"></path></g></g></g></g></g></g></g></g></g></g></svg>